<svg xmlns="http://www.w3.org/2000/svg" width="640" height="165" viewBox="0 0 640 165"><rect width="640" height="165" fill="white"/><style>text{font:14px sans-serif;fill:#111;text-anchor:middle}line{stroke:#111;stroke-width:2}.web-X{stroke:#d72626;stroke-width:6}.web-Z{stroke:#284ecb;stroke-width:6}</style><text x="80" y="22">1 leg</text><line x1="80" y1="95" x2="30" y2="95"/><circle cx="80" cy="95" r="10" fill="#7396ff" stroke="#111"/><text x="240" y="22">2 legs</text><line x1="240" y1="95" x2="190" y2="95"/><line x1="240" y1="95" x2="290" y2="95"/><circle cx="240" cy="95" r="10" fill="#7396ff" stroke="#111"/><text x="400" y="22">3 legs</text><line x1="400" y1="95" x2="350" y2="95"/><line x1="400" y1="95" x2="450" y2="95"/><line x1="400" y1="95" x2="400" y2="45"/><circle cx="400" cy="95" r="10" fill="#7396ff" stroke="#111"/><text x="560" y="22">4 legs</text><line x1="560" y1="95" x2="510" y2="95"/><line x1="560" y1="95" x2="610" y2="95"/><line x1="560" y1="95" x2="560" y2="45"/><line x1="560" y1="95" x2="560" y2="145"/><circle cx="560" cy="95" r="10" fill="#7396ff" stroke="#111"/></svg>
